<?xml version="1.0" encoding="UTF-8" standalone="no"?>
<!-- Created with Inkscape (http://www.inkscape.org/) -->

<svg
   version="1.1"
   id="svg10154"
   width="1080"
   height="1080"
   viewBox="0 0 1080 1080"
   xml:space="preserve"
   xmlns="http://www.w3.org/2000/svg"
   xmlns:svg="http://www.w3.org/2000/svg"><defs
     id="defs10158" /><g
     id="g10160"
     transform="translate(-1.5146817e-5)"><ellipse
       style="fill:#1c4508;fill-opacity:1;stroke-width:2.92493"
       id="path32535"
       cx="2414.9824"
       cy="656.17078"
       transform="matrix(0.17184616,0,0,0.1700475,124.99456,428.4198)"
       ry="3175.5833"
       rx="3142.3455" /><g
       id="g32553"
       transform="translate(1.5428571,18.057104)"><g
         id="g32233"
         transform="matrix(0.00749652,0.15333577,-0.15495768,0.00741806,160.59866,474.71075)"><g
           id="g30051"
           transform="translate(-2133.6683,-1302.4543)"><path
             d="M 261.23,241.48 C 471.17,48.91 704.99,46.53 771.09,49.38 c 54.62,2.3575 100.81,8.0024 121.59,12.397 34.724,7.3432 25.195,7.327 46.702,33.008 21.507,25.68 34.249,26.987 35.022,68.388 0.638,34.21 5.9807,206.33 -60.35,357.28 -66.33,150.95 -113.03,188.58 -173.28,243.84 -60.249,55.265 -197.58,142.87 -350.57,174.12 -79.269,16.188 -298.03,7.6502 -312.03,-10.338 C 72.5389,919.8131 64.015,910.586 57.244,905.569 42.056,889.011 31.878,854.352 30.296,825.701 28.7146,797.05 17.148,635.811 90.844,479.581 c 73.696,-156.23 170.39,-238.1 170.39,-238.1 z"
             stroke="#391b0f"
             stroke-width="2"
             id="path29991" /><g
             fill="#ffffff"
             id="g29997"><path
               d="m 82.755,491.52 c -17.329,40.267 -29.251,80.502 -37.386,118.39 4.8183,9.889 10.692,21.773 12.387,24.378 2.6562,4.079 9.8658,7.23 9.8658,7.23 0,0 -0.2423,5.671 6.7906,13.339 7.033,7.667 100.31,117.63 135.92,158.82 35.608,41.19 60.581,66.049 63.827,69.588 1.86,2.027 55.97297,58.99472 58.79997,60.74172 45.36571,-1.11555 103.11419,-17.86071 103.11419,-17.86071 0,0 -129.87628,-166.74629 -198.99816,-246.69601 -48.002,-55.886 -118.77,-135.42 -122.01,-138.96 -3.245,-3.539 -3.423,-13.194 -3.423,-13.194 0,0 -2.974,3.818 -10.499,-5.57 -7.5254,-9.388 -13.348,-19.236 -15.955,-24.447 -0.6299,-1.259 -1.4808,-3.352 -2.4226,-5.756 z"
               id="path29993" /><path
               d="m 553.32,74.767 c 7.64,1.441 16.468,3.7036 22.299,7.0919 10.118,5.8785 7.23,4.2466 15.934,12.553 6.158,5.8757 3.649,6.7997 1.645,6.8467 3.426,0.196 12.985,0.993 15.66,3.91 114.69646,114.00348 225.47161,219.3313 328.06296,349.27949 18.67484,-58.65478 28.87931,-137.44977 28.87931,-137.44977 0,0 -99.87169,-98.98206 -131.07327,-131.36772 -37.968,-39.025 -101.23,-98.674 -108.27,-106.34 -7.033,-7.6676 -17.783,-8.1621 -17.783,-8.1621 0,0 -0.39404,-6.5863 -4.195,-9.6282 -7.626,-6.1026 -16.851,-9.38 -24.794,-11.164 -36.085,3.6608 -79.184,10.878 -126.37,24.434 z"
               id="path29995" /></g></g><path
           style="fill:#722e00;fill-opacity:1;stroke-width:1.54152"
           d="m -1731.1856,-420.67182 c -105.6404,-133.95765 -148.1184,-185.05129 -245.8841,-295.75545 -22.1701,-25.10413 -41.0794,-47.08299 -42.0208,-48.84191 -0.9413,-1.75893 -1.7115,-4.95608 -1.7115,-7.10479 0,-2.60875 -0.6782,-3.64653 -2.0412,-3.12349 -2.8596,1.09733 -9.4914,-5.87479 -18.1987,-19.13282 -7.1775,-10.92851 -7.3595,-11.48267 -5.3175,-16.18596 25.6738,-59.13135 71.1479,-132.28527 115.621,-185.99858 50.902,-61.47798 119.1374,-118.26428 192.7765,-160.43108 22.4431,-12.8513 67.9675,-34.8067 90.9784,-43.877 24.7577,-9.7587 67.8545,-23.8371 72.9658,-23.8356 9.8585,0 36.5048,18.0965 33.5918,22.8098 -0.5276,0.8536 2.1839,1.9752 6.249,2.5848 7.0018,1.05 8.9092,2.7949 76.4399,69.9265 117.5992,116.904 186.9589,191.45063 245.7409,264.11813 l 14.8785,18.39307 -5.0298,14.94922 c -20.2935,60.31427 -61.635,142.49979 -96.223,191.28821 -24.8885,35.1066 -74.3845,85.59766 -117.8558,120.22518 -56.8903,45.31647 -131.5429,88.11838 -205.3222,117.721 -15.9138,6.38513 -72.0432,25.8187 -74.5714,25.8187 -0.3979,0 -16.1775,-19.59657 -35.0658,-43.54793 z"
           id="path30422" /><path
           style="fill:#722e00;fill-opacity:1;stroke-width:1.54152"
           d="m -1264.807,-1083.5053 c -114.295,-114.809 -146.5294,-145.7347 -153.3171,-147.0922 -3.4657,-0.6932 -5.5113,-2.4013 -7.2551,-6.0581 -1.5047,-3.1554 -4.9875,-6.4443 -9.155,-8.6452 l -6.7264,-3.5525 6.5865,-1.0418 c 12.4065,-1.9626 83.9315,-1.2913 113.2154,1.0625 50.278,4.0413 90.5693,10.3079 102.2258,15.8996 3.279,1.5729 9.2121,7.5748 15.2185,15.395 5.4144,7.0493 15.2268,18.6268 21.8054,25.7277 14.4492,15.5965 17.9396,22.3902 20.2359,39.3883 3.3395,24.7191 -1.614,154.55236 -6.2169,162.94933 -0.6981,1.27339 -34.1193,-31.25393 -96.617,-94.03263 z"
           id="path32221" /><path
           style="fill:#722e00;fill-opacity:1;stroke-width:1.54152"
           d="m -1938.937,-358.75011 c -47.4066,-2.24481 -88.4531,-6.94828 -104.345,-11.95677 -7.0498,-2.22182 -10.1223,-4.6912 -23.069,-18.54069 -11.944,-12.77673 -16.0956,-18.48973 -20.7243,-28.51811 -13.4349,-29.10785 -16.0626,-50.33086 -14.9976,-121.12855 0.8115,-53.95102 2.4367,-73.65457 9.6067,-116.47397 5.8616,-35.00526 5.2358,-33.85219 11.4276,-21.05308 3.0494,6.30359 6.7559,11.59009 8.9487,12.76366 2.0588,1.10181 4.9326,4.46506 6.3863,7.47388 1.4537,3.00882 33.7674,41.88213 71.8082,86.38513 83.0277,97.13196 94.5872,110.20693 133.5209,151.02533 16.5929,17.39623 36.1675,37.94016 43.499,45.65315 l 13.3301,14.02365 -19.6055,0.99993 c -24.5224,1.25069 -82.48,0.92354 -115.7861,-0.65356 z"
           id="path32223" /></g><path
         style="fill:#ffffff;stroke-width:0.57293"
         d="m 344.36758,1025.8615 c 0,0 -36.01122,-12.2456 -72.44813,-34.28641 24.41734,-39.50168 49.43781,-81.99978 50.641,-119.09198 27.86127,-99.38126 49.92305,-205.26094 94.27312,-303.18074 8.64169,-118.16281 -20.42583,-142.2618 -20.42583,-142.2618 -59.85192,5.23894 -169.18196,7.49198 -188.95995,-30.11147 -9.79972,-43.71936 15.61622,-95.88339 26.41251,-108.53898 l -6.74289,-24.55862 c -16.72677,-37.28456 3.60957,-28.35235 13.85953,0.0922 24.32932,22.11091 45.93148,12.69726 66.01384,1.6122 4.48462,-8.21791 11.28026,-10.11837 11.28026,-10.11837 5.50956,-26.96993 27.14357,-11.80029 14.5162,4.29303 -8.95673,21.70348 -28.69168,30.07078 -44.58834,44.55506 0,0 -11.43081,36.57092 -9.63258,54.36496 24.35389,-21.76683 92.10196,-23.53706 92.10196,-23.53706 26.84887,-12.08087 25.9934,-27.03713 114.51327,-37.0991 l 12.56976,-20.21205 -7.85608,-26.43116 C 447.4256,186.4064 464.68324,99.635663 548.3505,88.824623 c 54.3192,-6.848453 78.17504,27.183777 96.13202,67.840267 2.04622,35.53644 3.72988,82.01465 -4.7919,105.57332 l -27.24393,5.43812 c -3.79263,13.49184 -1.20961,13.99058 -2.35323,27.86284 89.21803,3.68325 165.21773,125.28953 155.12777,111.65221 5.66187,-97.43895 43.89198,-164.41618 41.291,-176.91733 l 38.77167,7.23268 c 13.27379,-5.3298 -8.2362,129.63238 -11.91943,179.35054 -1.85267,27.20798 -9.25352,48.05802 -30.01336,73.92914 0,0 -18.06897,9.32863 -33.78118,4.66431 -33.53409,-18.45698 -68.68388,-32.64205 -87.20267,-52.86229 -16.49777,2.33218 -21.99705,50.53011 -50.27897,143.81645 19.12131,106.99395 60.13383,208.11971 86.41699,319.50602 l 12.56977,45.08846 22.3509,66.27324 c 0,0 -37.99279,17.2923 -80.48598,27.6178 C 662.72929,982.69917 647.0171,959.55043 647.0171,959.55043 483.38656,762.29218 509.32689,805.07401 381.48114,996.08744 c -8.23552,10.09166 -37.11356,29.77406 -37.11356,29.77406 z"
         id="path10898" /><path
         style="fill:#ffffff;stroke-width:0.57293"
         d="m 807.43694,242.76327 c 17.62248,10.05106 27.4853,9.18146 41.64933,-1.86127 -3.12222,-23.07764 6.81047,-34.75141 16.39108,-59.02831 5.71221,-15.93066 9.70047,-27.00656 12.62912,-40.68164 1.07484,-13.56056 -2.41835,-19.14429 -2.41835,-19.14429 -4.26556,-5.20295 -8.7327,-6.20426 -11.55435,1.32946 0.5369,7.26186 1.45791,19.33146 1.14748,20.04287 -0.85583,1.96125 -5.73269,-24.29407 -12.97049,-30.9445 -4.56802,-3.98841 -7.25503,-0.26589 -7.25503,-0.26589 0,0 -2.95581,5.58376 0.26867,9.30626 5.22775,6.35662 4.07254,13.73761 4.8367,21.80325 0,0 -3.49537,14.60038 -4.26351,15.47528 -7.28977,8.30294 0.14599,-0.0131 -0.95978,0.90709 -3.67773,-9.79038 -2.03178,-22.76382 -2.03178,-22.76382 -1.61226,-9.83804 -5.37414,-13.29464 -5.37414,-13.29464 -3.22447,-5.05199 -12.62914,-6.91323 -12.62914,-6.91323 0,0 -6.71759,1e-5 -4.83664,5.58376 7.1555,6.94435 8.63143,9.14954 9.40464,19.4102 l -6.71761,26.85521 c -35.50608,-36.44893 -17.43785,11.19502 -15.3162,74.18421 z"
         id="path11190" /><path
         style="fill:#ffffff;stroke-width:0.57293"
         d="m 858.57088,173.01924 c -23.15211,-23.6002 -30.51046,-15.68081 -39.86081,-11.81217 -4.97499,-5.00864 -0.0231,-13.01497 -0.21016,-19.68618 0,0 -1.97603,-4.92959 -7.72918,-1.46374 -30.00966,36.73637 21.61641,45.49164 48.23397,40.20835 z"
         id="path11192" /></g></g></svg>
